<svg width="300" height="300" viewBox="0 0 300 300" version="1.1" xmlns="http://www.w3.org/2000/svg" xmlns:xlink="http://www.w3.org/1999/xlink" xmlns:figma="http://www.figma.com/figma/ns">
<title>nude-logo-black-square</title>
<desc>Created using Figma</desc>
<g id="Canvas" transform="translate(-227 31)" figma:type="canvas">
<g id="nude-logo-black-square" figma:type="frame">
<g id="NUDE" figma:type="vector">
<use xlink:href="#path0_fill" transform="translate(257 86)"/>
<use xlink:href="#path1_fill" transform="translate(257 86)"/>
<use xlink:href="#path2_fill" transform="translate(257 86)"/>
<use xlink:href="#path3_fill" transform="translate(257 86)"/>
</g>
</g>
</g>
<defs>
<path id="path0_fill" d="M 59.5648 1.27989C 59.5648 1.88936 58.8011 2.16362 57.2738 2.10267L 55.2578 2.01125L 53.6083 2.01125C 52.6308 2.01125 52.0504 2.19409 51.8672 2.55977C 51.6839 2.86451 51.5922 3.87013 51.5922 5.57665L 51.5922 58.2349C 51.5922 61.4651 51.5617 63.3544 51.5006 63.903C 51.4395 64.4515 51.2562 64.7257 50.9508 64.7257C 50.5842 64.7257 50.1566 64.3905 49.6678 63.7201L 37.9382 46.6245C 31.1569 36.6901 22.9095 24.2874 13.1959 9.41631L 13.2875 60.429C 13.3486 61.2213 13.8068 61.7393 14.6621 61.9831C 15.5174 62.166 17.564 62.2879 20.8018 62.3488C 21.596 62.3488 21.9931 62.5926 21.9931 63.0802C 21.9931 63.6896 21.1989 63.9944 19.6105 63.9944C 19.0607 63.9944 17.3196 63.903 14.3872 63.7201C 13.4097 63.6592 12.4628 63.6287 11.5464 63.6287C 11.6075 63.6287 11.0577 63.6896 9.89691 63.8115C 8.79726 63.9334 7.08668 63.9944 4.76518 63.9944L 3.8488 63.9944C 2.44368 63.9944 1.74112 63.7201 1.74112 63.1716C 1.74112 62.6231 2.35204 62.3488 3.57389 62.3488C 7.17832 62.2879 9.25545 62.0745 9.80527 61.7089C 10.4162 61.2822 10.7217 59.9719 10.7217 57.7778L 10.7217 12.7075C 10.7217 7.64885 9.68309 4.4796 7.60596 3.19972C 6.62849 2.59025 4.88736 2.28551 2.38259 2.28551C 0.794197 2.28551 0 1.98078 0 1.37131C 0 0.822785 0.45819 0.548522 1.37457 0.548522C 2.59641 0.548522 4.15426 0.578996 6.04811 0.639943C 7.94197 0.70089 8.94999 0.731362 9.07217 0.731362C 9.25545 0.731362 10.1107 0.70089 11.638 0.639943C 13.6541 0.639943 15.609 0.609469 17.5029 0.548522L 49.118 47.4473L 49.118 6.76512C 49.118 4.87576 49.0875 3.74824 49.0264 3.38256C 48.9653 2.95593 48.7209 2.65119 48.2933 2.46835C 47.8656 2.22456 46.3994 2.10267 43.8946 2.10267C 41.6953 2.10267 40.5957 1.82841 40.5957 1.27989C 40.5957 0.670417 41.3288 0.36568 42.795 0.36568L 46.0023 0.36568C 46.7965 0.36568 47.6518 0.36568 48.5682 0.36568C 49.5457 0.426627 50.126 0.457101 50.3093 0.457101C 50.3704 0.457101 50.9202 0.426627 51.9588 0.36568C 52.9363 0.36568 53.8526 0.36568 54.7079 0.36568L 57.5487 0.36568C 58.8927 0.36568 59.5648 0.670417 59.5648 1.27989Z"/>
<path id="path1_fill" d="M 121.077 1.27989C 121.077 1.82841 120.527 2.10267 119.427 2.10267C 119.244 2.10267 118.633 2.0722 117.595 2.01125C 117.289 1.9503 116.861 1.91983 116.312 1.91983C 114.784 1.91983 113.868 2.31599 113.562 3.1083C 113.44 3.53493 113.379 4.23582 113.379 5.21097L 113.379 39.4937C 113.379 48.3919 111.699 54.8828 108.339 58.9662C 105.04 62.9887 99.6946 65 92.3025 65C 83.4441 65 77.2127 62.5012 73.6083 57.5035C 71.2257 54.1514 70.0344 48.6357 70.0344 40.9564L 69.9428 4.29676C 69.7595 3.19972 69.0264 2.5293 67.7435 2.28551C 67.3769 2.22457 66.2467 2.19409 64.3528 2.19409C 63.3143 2.0722 62.795 1.76746 62.795 1.27989C 62.795 0.731364 63.2226 0.457101 64.0779 0.457101L 65.7274 0.457101C 66.0329 0.457101 66.7354 0.487575 67.8351 0.548522C 68.8126 0.548522 69.6984 0.548522 70.4926 0.548522L 83.5968 0.457101C 83.9023 0.396154 84.2688 0.36568 84.6965 0.36568C 85.7351 0.36568 86.2543 0.700891 86.2543 1.37131C 86.2543 1.79794 86.0711 2.04172 85.7045 2.10267C 85.338 2.16362 84.1161 2.22457 82.039 2.28551C 81.1837 2.28551 80.6033 2.34646 80.2979 2.46835C 79.6869 2.71214 79.3509 3.13877 79.2898 3.74824C 79.2288 3.99203 79.1982 5.72902 79.1982 8.95921L 79.1982 41.6878C 79.1982 49.7328 80.4811 55.218 83.047 58.1435C 85.6129 61.0689 89.4311 62.5316 94.5018 62.5316C 103.788 62.5316 109.042 57.2597 110.264 46.7159C 110.447 45.1313 110.538 38.4271 110.538 26.6034L 110.538 21.3924L 110.63 14.0788L 110.538 7.77074C 110.538 7.16127 110.538 6.49086 110.538 5.75949C 110.6 4.96718 110.63 4.63197 110.63 4.75387C 110.63 3.41303 109.989 2.59025 108.706 2.28551C 108.278 2.16362 107.026 2.10267 104.949 2.10267C 103.727 2.10267 103.116 1.76746 103.116 1.09704C 103.116 0.548521 103.543 0.274261 104.399 0.274261C 104.887 0.274261 105.285 0.304733 105.59 0.36568C 106.323 0.426627 108.981 0.457101 113.562 0.457101C 114.235 0.457101 114.998 0.426627 115.853 0.36568C 116.648 0.36568 117.228 0.36568 117.595 0.36568L 118.969 0.36568C 120.374 0.36568 121.077 0.670417 121.077 1.27989Z"/>
<path id="path2_fill" d="M 183.667 32.2715C 183.667 42.9981 179.91 51.3479 172.396 57.3207C 166.897 61.7089 159.536 63.903 150.311 63.903C 150.066 63.903 148.967 63.8725 147.012 63.8115C 145.118 63.7506 142.338 63.7201 138.673 63.7201L 134.091 63.7201L 126.851 63.8115C 126.424 63.8725 125.966 63.903 125.477 63.903C 124.316 63.903 123.736 63.5982 123.736 62.9887C 123.736 62.4402 124.713 62.166 126.668 62.166C 129.173 62.166 130.731 61.7089 131.342 60.7947C 131.586 60.368 131.708 59.21 131.708 57.3207L 131.708 8.04501C 131.708 5.0586 131.464 3.32161 130.975 2.83403C 130.548 2.34646 128.99 2.10267 126.302 2.10267C 124.896 2.10267 124.194 1.76746 124.194 1.09704C 124.194 0.609468 124.713 0.36568 125.752 0.36568C 125.691 0.36568 126.363 0.396154 127.768 0.457101C 129.173 0.518048 130.548 0.548522 131.892 0.548522L 141.697 0.548522C 152.693 0.548522 160.483 1.31036 165.065 2.83403C 170.624 4.66245 175.114 8.28879 178.535 13.7131C 181.956 19.0764 183.667 25.2625 183.667 32.2715ZM 173.404 31.9058C 173.404 21.7886 171.418 14.3835 167.447 9.69058C 163.476 4.93671 157.275 2.55977 148.845 2.55977C 144.751 2.55977 142.277 2.9864 141.422 3.83966C 141.055 4.26629 140.872 5.72902 140.872 8.22785L 140.872 56.8636C 140.872 58.5701 140.903 59.6062 140.964 59.9719C 141.086 60.3376 141.361 60.6423 141.788 60.8861C 143.255 61.6174 146.34 61.9831 151.044 61.9831C 157.642 61.9831 162.957 59.6671 166.989 55.0352C 171.265 50.1594 173.404 42.4496 173.404 31.9058Z"/>
<path id="path3_fill" d="M 239 49.0928C 239 49.3366 238.939 50.8298 238.817 53.5724C 238.695 56.315 238.633 58.9358 238.633 61.4346L 238.633 64.4515C 232.646 64.1467 220.795 63.9944 203.078 63.9944C 200.94 63.9944 198.832 64.0248 196.755 64.0858C 194.678 64.0858 193.273 64.0858 192.539 64.0858L 191.623 64.0858C 190.462 64.0858 189.882 63.8115 189.882 63.263C 189.882 62.8973 190.065 62.684 190.432 62.6231C 190.615 62.6231 191.776 62.5316 193.914 62.3488C 195.502 62.2269 196.449 61.8917 196.755 61.3432C 197.121 60.7947 197.305 59.3624 197.305 57.0464L 197.305 5.66807C 197.305 3.90061 197.03 2.86451 196.48 2.55977C 195.991 2.19409 194.342 2.01125 191.531 2.01125C 190.554 2.01125 190.065 1.73699 190.065 1.18847C 190.065 0.639942 190.737 0.36568 192.081 0.36568L 207.751 0.457101C 208.301 0.457101 211.753 0.426627 218.107 0.36568C 224.46 0.36568 228.737 0.36568 230.936 0.36568C 232.769 0.36568 234.449 0.243788 235.976 0C 236.098 2.62072 236.373 6.24707 236.801 10.879L 237.167 14.8101C 237.228 15.1149 237.259 15.511 237.259 15.9986C 237.259 16.6081 236.984 16.9128 236.434 16.9128C 235.762 16.9128 235.273 16.151 234.968 14.6273C 233.807 9.14205 231.913 5.66807 229.286 4.20534C 227.331 3.1083 222.2 2.55977 213.891 2.55977L 206.377 2.55977L 206.377 29.346L 208.576 29.346C 215.418 29.346 219.573 28.8279 221.039 27.7918C 222.566 26.7557 223.605 23.7389 224.155 18.7412C 224.277 17.4613 224.613 16.8214 225.163 16.8214C 225.835 16.8214 226.171 17.3699 226.171 18.4669C 226.171 19.564 226.11 21.1791 225.987 23.3122C 225.865 25.4454 225.804 27.0605 225.804 28.1575C 225.804 34.6789 225.926 39.1585 226.171 41.5963C 226.232 42.2058 226.262 42.7239 226.262 43.1505C 226.262 43.9428 225.926 44.339 225.254 44.339C 224.827 44.339 224.521 44.0952 224.338 43.6076C 224.216 43.0591 223.971 41.3526 223.605 38.488C 223.116 34.8922 221.619 32.6676 219.115 31.8143C 218.015 31.4487 215.144 31.2658 210.501 31.2658L 206.377 31.2658L 206.377 61.9831C 219.817 61.9831 227.698 61.7089 230.019 61.1603C 234.052 60.2461 236.342 56.3455 236.892 49.4585C 237.015 47.9348 237.412 47.173 238.084 47.173C 238.695 47.173 239 47.8129 239 49.0928Z"/>
</defs>
</svg>
