<svg width="300" height="300" viewBox="0 0 300 300" version="1.1" xmlns="http://www.w3.org/2000/svg" xmlns:xlink="http://www.w3.org/1999/xlink" xmlns:figma="http://www.figma.com/figma/ns">
<title>nude-logo-n-square</title>
<desc>Created using Figma</desc>
<g id="Canvas" transform="translate(-567 31)" figma:type="canvas">
<g id="nude-logo-n-square" figma:type="frame">
<g id="NUDE" figma:type="vector">
<use xlink:href="#path0_fill" transform="translate(613 6)"/>
</g>
</g>
</g>
<defs>
<path id="path0_fill" d="M 209 3.21023C 209 5.35038 206.321 6.31345 200.962 6.09943L 193.888 5.77841L 188.1 5.77841C 184.67 5.77841 182.634 6.42046 181.991 7.70455C 181.348 8.77462 181.026 12.3059 181.026 18.2983L 181.026 203.207C 181.026 214.55 180.919 221.185 180.705 223.111C 180.49 225.037 179.847 226 178.775 226C 177.489 226 175.989 224.823 174.274 222.469L 133.117 162.437C 109.323 127.553 80.3846 84.0009 46.3015 31.7812L 46.6231 210.912C 46.8374 213.694 48.4451 215.513 51.4462 216.369C 54.4472 217.011 61.6282 217.439 72.9892 217.653C 75.7759 217.653 77.1692 218.509 77.1692 220.222C 77.1692 222.362 74.3826 223.432 68.8092 223.432C 66.88 223.432 60.7708 223.111 50.4815 222.469C 47.0518 222.255 43.7292 222.148 40.5139 222.148C 40.7282 222.148 38.799 222.362 34.7262 222.79C 30.8677 223.218 24.8656 223.432 16.72 223.432L 13.5046 223.432C 8.57436 223.432 6.10923 222.469 6.10923 220.543C 6.10923 218.616 8.25282 217.653 12.54 217.653C 25.1872 217.439 32.4754 216.69 34.4046 215.406C 36.5482 213.908 37.62 209.307 37.62 201.602L 37.62 43.3381C 37.62 25.5748 33.9759 14.446 26.6877 9.95171C 23.2579 7.81155 17.1487 6.74148 8.36 6.74148C 2.78667 6.74148 0 5.67141 0 3.53126C 0 1.60512 1.60769 0.64205 4.82308 0.64205C 9.11026 0.64205 14.5764 0.74906 21.2215 0.963075C 27.8667 1.17709 31.4036 1.28409 31.8323 1.28409C 32.4754 1.28409 35.4764 1.17709 40.8354 0.963075C 47.9092 0.963075 54.7687 0.856065 61.4138 0.64205L 172.345 165.327L 172.345 22.4716C 172.345 15.8371 172.237 11.8778 172.023 10.5938C 171.809 9.09565 170.951 8.02557 169.451 7.38352C 167.95 6.52746 162.806 6.09943 154.017 6.09943C 146.3 6.09943 142.442 5.13637 142.442 3.21023C 142.442 1.07008 145.014 0 150.158 0L 161.412 0C 164.199 0 167.2 0 170.415 0C 173.845 0.214015 175.882 0.321025 176.525 0.321025C 176.739 0.321025 178.668 0.214015 182.312 0C 185.742 0 188.957 0 191.958 0L 201.926 0C 206.642 0 209 1.07008 209 3.21023Z"/>
</defs>
</svg>
