<svg width="100" height="40" viewBox="0 0 100 40" version="1.1" xmlns="http://www.w3.org/2000/svg" xmlns:xlink="http://www.w3.org/1999/xlink">
<title>nude--logo-black</title>
<desc>Created using Figma</desc>
<g id="Canvas" transform="translate(-241 367)">
<clipPath id="clip-0" clip-rule="evenodd">
<path d="M 241 -367L 341 -367L 341 -327L 241 -327L 241 -367Z" fill="#FFFFFF"/>
</clipPath>
<g id="nude--logo-black" clip-path="url(#clip-0)">
<g id="NUDE.">
<use xlink:href="#path0_fill" transform="translate(243 -376)"/>
</g>
</g>
</g>
<defs>
<path id="path0_fill" d="M 7.89773 11.375L 15 35.2955L 15 11.375L 20.3693 11.375L 20.3693 47L 14.6023 47L 7.21591 24.1875L 7.21591 47L 1.84659 47L 1.84659 11.375L 7.89773 11.375ZM 33.1143 47.3977C 30.7469 47.3977 28.7393 46.5739 27.0916 44.9261C 25.4439 43.2784 24.62 41.2803 24.62 38.9318L 24.62 11.4034L 29.8757 11.4034L 29.8757 38.875C 29.8757 39.7273 30.1787 40.4564 30.7848 41.0625C 31.3909 41.6496 32.12 41.9432 32.9723 41.9432C 33.8246 41.9432 34.5443 41.6496 35.1314 41.0625C 35.7375 40.4564 36.0405 39.7273 36.0405 38.875L 36.0405 11.4034L 41.6371 11.4034L 41.6371 38.9318C 41.6371 41.3182 40.8037 43.3258 39.1371 44.9545C 37.4704 46.5833 35.4628 47.3977 33.1143 47.3977ZM 63.2919 38.4773C 63.2919 40.8258 62.468 42.8333 60.8203 44.5C 59.1726 46.1667 57.1839 47 54.8544 47L 46.4169 47L 46.4169 11.375L 54.8544 11.375C 57.2029 11.375 59.1915 12.2083 60.8203 13.875C 62.468 15.5417 63.2919 17.5398 63.2919 19.8693L 63.2919 38.4773ZM 51.7862 41.6875L 55.0249 41.6875C 55.8771 41.6875 56.5968 41.3845 57.1839 40.7784C 57.7711 40.1534 58.0646 39.4242 58.0646 38.5909L 58.0646 19.9545C 58.0646 19.1023 57.7616 18.3731 57.1555 17.767C 56.5684 17.161 55.8582 16.858 55.0249 16.858L 51.7862 16.858L 51.7862 41.6875ZM 68.0575 47L 68.0575 11.375L 83.3416 11.375L 83.3416 16.7443L 73.4268 16.7443L 73.4268 26.4886L 80.6712 26.4886L 80.6712 31.8864L 73.4268 31.8864L 73.4268 41.6307L 83.3416 41.6307L 83.3416 47L 68.0575 47ZM 87.5497 41.6591L 92.919 41.6591L 92.919 47.0284L 87.5497 47.0284L 87.5497 41.6591Z"/>
</defs>
</svg>
